<?xml version="1.0" encoding="UTF-8"?>
<svg xmlns="http://www.w3.org/2000/svg" width="56" height="51" viewBox="0 0 56 51" fill="none">
  <g clip-path="url(#clip0_4584_32455)">
    <path d="M43.8112 26.5257C40.7466 26.5257 37.8075 27.768 35.6405 29.9792C33.4735 32.1904 32.2561 35.1894 32.2561 38.3166C32.2561 41.4437 33.4735 44.4427 35.6405 46.654C37.8075 48.8652 40.7466 50.1074 43.8112 50.1074C46.8757 50.1074 49.8148 48.8652 51.9818 46.654C54.1488 44.4427 55.3662 41.4437 55.3662 38.3166C55.3662 35.1894 54.1488 32.1904 51.9818 29.9792C49.8148 27.768 46.8757 26.5257 43.8112 26.5257ZM13.7929 26.528C12.2622 26.5062 10.7426 26.7951 9.32226 27.3778C7.90193 27.9604 6.60923 28.8253 5.51927 29.9221C4.4293 31.019 3.56381 32.3259 2.97307 33.767C2.38233 35.208 2.07813 36.7545 2.07812 38.3166C2.07813 39.8786 2.38233 41.4251 2.97307 42.8662C3.56381 44.3073 4.4293 45.6142 5.51927 46.711C6.60923 47.8078 7.90193 48.6727 9.32226 49.2554C10.7426 49.838 12.2622 50.1269 13.7929 50.1051C16.829 50.062 19.7265 48.801 21.8586 46.5949C23.9907 44.3888 25.186 41.415 25.186 38.3166C25.186 35.2182 23.9907 32.2443 21.8586 30.0382C19.7265 27.8321 16.829 26.5711 13.7929 26.528ZM40.3548 11.7897C40.3548 14.9165 39.1375 17.9153 36.9708 20.1263C34.804 22.3373 31.8652 23.5794 28.8009 23.5794C25.7366 23.5794 22.7978 22.3373 20.6311 20.1263C18.4643 17.9153 17.247 14.9165 17.247 11.7897C17.247 8.66289 18.4643 5.66413 20.6311 3.45313C22.7978 1.24213 25.7366 0 28.8009 0C31.8652 0 34.804 1.24213 36.9708 3.45313C39.1375 5.66413 40.3548 8.66289 40.3548 11.7897Z" fill="#F06A6A"></path>
  </g>
  <defs>
    <clipPath id="clip0_4584_32455">
      <rect width="56" height="50.2857" fill="white"></rect>
    </clipPath>
  </defs>
</svg>
