<?xml version="1.0" encoding="UTF-8"?>
<svg xmlns="http://www.w3.org/2000/svg" width="100" height="100" viewBox="0 0 100 100" fill="none">
  <path fill-rule="evenodd" clip-rule="evenodd" d="M52.9094 8.48033C31.741 8.48033 20.7025 26.4096 14.4963 43.9383C13.7465 46.0558 11.4222 47.1646 9.30467 46.4149C7.18716 45.6652 6.07836 43.3408 6.82809 41.2233C13.1222 23.4465 25.9385 0.345703 52.9094 0.345703C67.0075 0.345703 77.0984 9.67242 83.6246 20.8773C90.168 32.1116 93.6566 46.0221 94.4429 57.2536C94.5997 59.4944 92.9103 61.4381 90.6695 61.595C88.4287 61.7519 86.4849 60.0625 86.3281 57.8216C85.6114 47.5839 82.3969 34.9321 76.5954 24.9714C70.7767 14.9813 62.881 8.48033 52.9094 8.48033Z" fill="#1D2D35"></path>
  <path opacity="0.4" d="M100 69.5606L28.292 99.0932L0 30.4387L12.9293 25.0951L71.708 0.90625L100 69.5606Z" fill="#FFE000"></path>
  <path d="M96.6371 77.3371L20.7068 93.0338L5.6543 20.3L18.4169 17.6522L81.6085 4.60352L96.6371 77.3371Z" fill="#FFE000"></path>
  <path fill-rule="evenodd" clip-rule="evenodd" d="M48.8436 4.36517C48.8436 2.11885 50.6646 0.297852 52.911 0.297852C67.0119 0.297852 77.1024 9.64006 83.6272 20.8551C90.1697 32.1007 93.6582 46.0225 94.4444 57.2537C94.5009 58.061 94.3153 58.8668 93.9113 59.568C90.1318 66.1289 83.844 70.4045 76.6767 73.0232C69.5282 75.635 61.2479 76.7021 52.9478 76.7053C45.8788 76.8297 38.8662 75.4254 32.39 72.5884C25.9021 69.7464 20.1063 65.5338 15.4005 60.2399C14.402 59.1166 14.1043 57.5342 14.6264 56.1248L18.4404 57.5377C14.6264 56.1248 14.6267 56.1241 14.6269 56.1234L14.6276 56.1216L14.6353 56.1009C14.6401 56.088 14.6468 56.0702 14.6552 56.0478C14.6721 56.0029 14.6962 55.9392 14.7272 55.8579C14.7893 55.6953 14.8793 55.4623 14.9953 55.1687C15.2271 54.582 15.5636 53.7514 15.9889 52.7574C16.8359 50.7781 18.0527 48.1107 19.5144 45.4175C20.9569 42.7598 22.7307 39.9025 24.7255 37.6514C26.5439 35.5992 29.3704 33.0992 32.9883 33.0746C32.9975 33.0746 33.0066 33.0745 33.0158 33.0745C35.5701 33.0745 37.6684 34.2485 39.1753 35.3713C40.696 36.5044 42.0797 37.9446 43.1893 39.1173C43.3129 39.2479 43.433 39.3751 43.5501 39.499C44.5888 40.5987 45.3837 41.4404 46.138 42.0696C46.2238 42.1412 46.3024 42.2042 46.3741 42.2595C46.6173 42.0107 46.9073 41.6846 47.2411 41.2701C48.4309 39.7927 49.7668 37.7113 51.0596 35.4827C52.3353 33.2835 53.4962 31.0681 54.3424 29.3924C54.764 28.5574 55.1043 27.863 55.3379 27.3799C55.4546 27.1385 55.5445 26.9502 55.6044 26.824C55.6344 26.7609 55.6569 26.7134 55.6714 26.6825C55.6787 26.667 55.684 26.6557 55.6873 26.6487L55.691 26.6409C56.6422 24.6059 59.063 23.7273 61.098 24.6786C63.1329 25.6298 64.0115 28.0506 63.0603 30.0856L59.5838 28.4605C63.0602 30.0856 63.0601 30.086 63.0598 30.0864L63.0592 30.0877L63.0515 30.1042C63.0465 30.1149 63.0395 30.1299 63.0304 30.1491C63.0196 30.172 63.0059 30.201 62.9894 30.2359C62.9783 30.2593 62.966 30.2853 62.9524 30.3139C62.8849 30.4561 62.7868 30.6614 62.6613 30.921C62.4104 31.4398 62.0494 32.1767 61.6037 33.0592C60.7152 34.8186 59.4772 37.1834 58.0961 39.5644C56.732 41.9159 55.1532 44.4147 53.5766 46.3724C52.7948 47.3432 51.908 48.3145 50.9486 49.0785C50.1003 49.7539 48.6039 50.7512 46.6848 50.7512C44.1498 50.7512 42.15 49.3363 40.9272 48.3162C39.7716 47.3522 38.6175 46.127 37.6481 45.0978C37.5224 44.9644 37.3998 44.8342 37.2807 44.7084C36.133 43.4955 35.1953 42.5503 34.3149 41.8943C33.549 41.3236 33.1584 41.2279 33.0481 41.2122C33.045 41.2134 33.0402 41.2151 33.0335 41.2175C32.9091 41.2613 32.162 41.5247 30.8138 43.0463C29.4159 44.6238 27.9856 46.8626 26.6639 49.2979C25.3614 51.6977 24.2539 54.1202 23.4676 55.9577C23.3662 56.1945 23.2705 56.421 23.1807 56.6356C26.7705 60.213 30.9987 63.0981 35.654 65.1374C41.0665 67.5084 46.9281 68.6799 52.8362 68.5713C52.8611 68.5709 52.8861 68.5706 52.911 68.5706C60.6052 68.5706 67.8881 67.5736 73.8851 65.3826C79.4022 63.3668 83.6108 60.4289 86.2269 56.5286C85.3403 46.532 82.1563 34.5031 76.5959 24.9458C70.7758 14.9418 62.8797 8.43248 52.911 8.43248C50.6646 8.43248 48.8436 6.61148 48.8436 4.36517ZM45.7062 42.838C45.7065 42.8364 45.724 42.8245 45.7581 42.8069C45.7231 42.8307 45.706 42.8395 45.7062 42.838Z" fill="#1D2D35"></path>
</svg>
