<?xml version="1.0" encoding="UTF-8"?>
<svg xmlns="http://www.w3.org/2000/svg" id="Layer_1" data-name="Layer 1" viewBox="0 0 433.91 365.82">
  <defs>
    <style>.cls-1{fill:#00a0d2;}</style>
  </defs>
  <path class="cls-1" d="M143.77,292.26l-1.45.42c-5.54,1.68-11,4-16.58,5.5-3,.78-6.92.85-9.47-1.19-3.29-2.62-2.29-7.56.13-10.36,2.94-3.42,7.54-5.18,11.64-6.63,9.4-3.4,19.6-5.34,29.36-7.29a567.18,567.18,0,0,1,72-9.5,567.14,567.14,0,0,1,73.05-.82c6.9.4,13.8,1,20.63,1.71,3.39.36,6.78.78,10.16,1.2a5,5,0,0,1,2.44.91c1.31,1,2.1,2.47,1.26,4.91-.91,1.87-3.11,2.47-6.25,2.31-9.48-.56-18.95-1.63-28.49-2a483.36,483.36,0,0,0-52.19.84A433.69,433.69,0,0,0,182.65,282C169.61,285,156.51,288.4,143.77,292.26Z"></path>
  <path class="cls-1" d="M365.81,215.22a4.26,4.26,0,0,0-3.72-2.47c-1.85-.08-3.57.82-5.13,2.69-3.41,4.21-7.14,9.17-11.9,11.92-4.55,2.63-10,3.53-15.17,3.47-8.57-.09-11.47-4.22-10.63-4.88,12.08-9.41,27.08-22.21,32.25-37.14,3.3-9.51.57-22.55-8.79-27.72-4.06-2.25-9-2.55-13.55-1.74A41.34,41.34,0,0,0,314,165.28a44.53,44.53,0,0,0-15.46,18c-3.73,7.6-4.95,15.82-5,24.7A64.14,64.14,0,0,0,295,223.61c-2.62,2.59-5.64,4.93-9.26,4.89-3.92-.05-5.55-4-5.82-7.31-.26-3.78.57-13.79,4.32-29.93,3.41-14.11,6-22.66,6.25-25.76.19-1.86-.24-3.12-1.29-3.77s-3.05-.94-6-.87q-6.27.15-9.67,2.65c-2.25,1.67-4.08,4.37-5.38,8.14C264.33,182.81,261.08,192.3,258,200s-5.71,13.55-8.25,17.4-4.67,5.8-6.54,5.85a3.43,3.43,0,0,1-3.14-1.52c-.72-1.05-1.19-2.91-1.38-5.55-.29-4.4.33-13.26,3-26.48a124,124,0,0,1,3.47-12.66c1.72-5.77,2.74-9.14,2.82-10.14a4.25,4.25,0,0,0-1.24-3.87q-1.48-1.26-5.65-1.16c-4.93.12-8.63,1-11.06,2.69a17.45,17.45,0,0,0-6,8.17,110.6,110.6,0,0,0-6.87,25q-.55,3.85-.81,8a87,87,0,0,0,.61,18.79c-.8.58-1.61,1.14-2.46,1.65a19.16,19.16,0,0,1-7.39,2.8c-4.1.49-7.46-.26-10.11-2.27s-4.79-5.57-6.35-10.68c12.56-21.42,22.31-42.6,29.05-63.67s9.5-39.21,8-54.44c-1.07-10.62-3.8-18.61-8.23-23.88a18.1,18.1,0,0,0-16.77-6.8c-11.93,1.36-21.42,9.78-28.25,25.16s-11.08,33.33-12.8,53.8-1.46,38.51.62,54.07a105.2,105.2,0,0,0,3.08,15.63c-2.82,2.88-5.9,5.83-9.24,8.75,1.72-9.54-.51-20.21-.51-20.21-.19-.63-.33-1.26-.58-1.89a32.75,32.75,0,0,0-19-20.41c-11-4.4-23.26-3.21-32.72,4a37.83,37.83,0,0,0-9.65,10.21,6.15,6.15,0,0,0-.07-1.46v-4.72a266.32,266.32,0,0,1,4.86-44.4c.64-3.46,1.34-6.86,2.11-10.27.64-2.89,1.41-5.85,2.17-8.75,1.66-5.92,3.64-12.09,3.58-18.27-.06-4.21-4.28-7.11-8.44-6.86a15.59,15.59,0,0,0-13.35,8.75,124.22,124.22,0,0,0-6.14,16.26c-5.55,20.15-10,40.74-11.11,61.59C66.25,207.38,67,229.79,76.66,247a40.17,40.17,0,0,0,10.42,12.22A35.83,35.83,0,0,0,98.77,265a42.08,42.08,0,0,0,27-.69S144,257.89,172.63,233c.88,1.53,1.88,3.18,3,4.94l.66.88c7.07,9.4,16.82,13.26,29.24,11.77a36.45,36.45,0,0,0,18.79-7.86l.35.42c3.87,4.49,9.33,7.64,15,7.49a26.23,26.23,0,0,0,15.61-6.16c4-3.29,8.88-8.77,9.41-14.19a33.11,33.11,0,0,0-.12,8.26c1,6.49,6.89,10.46,13.15,11,9.34.75,17.8-3.81,25-9.58l.63-.52c6.28,6.64,14.89,10.09,25.9,10.4,7.68.21,14.34-1.1,20-4a37.06,37.06,0,0,0,14-12.38,22.16,22.16,0,0,0,3.65-11.82A12.36,12.36,0,0,0,365.81,215.22ZM123.06,237.54c-3.9,3.72-12.66,5.67-17.32,4.09-5.49-1.81-8.31-9.19-8.37-15.55-.51-13.86,8.11-23.11,18.47-25.94,20.38-5.55,18.72,24.12,12.26,32.49A20.49,20.49,0,0,1,123.06,237.54Zm62.24-92.77Q187,120.65,191.16,104t9.05-17.19q5.85-.66,7.42,13.92c1.35,12.41-.07,26.46-4.1,42.14A266.23,266.23,0,0,1,186,190.6,263.3,263.3,0,0,1,185.3,144.77Zm127.13,45.44a24.87,24.87,0,0,1,9.77-11.61,10.82,10.82,0,0,1,7.17-1.89c4.25.54,6.45,4.09,6.48,7.77a13.23,13.23,0,0,1-1.29,5.26c-1.57,3.06-4.27,5.67-7.83,8.62-5.92,4.91-11.16,9.41-16.71,13.5-.18-.91-.29-2.1-.39-2.93A34.66,34.66,0,0,1,312.43,190.21Z"></path>
  <path class="cls-1" d="M79.26,113.52v0c.15-.33.31-.64.47-1C79.42,113.16,79.26,113.52,79.26,113.52Z"></path>
</svg>
