<?xml version="1.0" encoding="UTF-8"?>
<svg xmlns="http://www.w3.org/2000/svg" width="100" height="100" viewBox="0 0 100 100" fill="none">
  <path d="M90.9144 10.7119H47.918C47.918 15.8596 49.9629 20.7964 53.6028 24.4363C57.2428 28.0763 62.1796 30.1212 67.3272 30.1212H75.2477V37.7685C75.2547 48.4782 83.9347 57.1585 94.6443 57.1655V14.4419C94.6443 12.3824 92.9748 10.7119 90.9144 10.7119Z" fill="#2684FF"></path>
  <path d="M69.6386 32.1357H26.6426C26.6492 42.8454 35.3292 51.5258 46.0392 51.5328H53.9597V59.2046C53.9733 69.9142 62.6593 78.5886 73.3689 78.5886V35.8664C73.3689 33.8063 71.6988 32.1357 69.6386 32.1357Z" fill="url(#paint0_linear_7728_37494)"></path>
  <path d="M48.3519 53.5469H5.35547C5.35547 64.2663 14.0456 72.9561 24.7647 72.9561H32.71V80.6031C32.717 91.303 41.3819 99.9795 52.0822 99.9998V57.2772C52.0822 55.2171 50.412 53.5469 48.3519 53.5469Z" fill="url(#paint1_linear_7728_37494)"></path>
  <defs>
    <linearGradient id="paint0_linear_7728_37494" x1="11722.1" y1="53.5224" x2="7083.66" y2="5474.21" gradientUnits="userSpaceOnUse">
      <stop offset="0.18" stop-color="#0052CC"></stop>
      <stop offset="1" stop-color="#2684FF"></stop>
    </linearGradient>
    <linearGradient id="paint1_linear_7728_37494" x1="12015.1" y1="113.987" x2="6649.67" y2="6026.26" gradientUnits="userSpaceOnUse">
      <stop offset="0.18" stop-color="#0052CC"></stop>
      <stop offset="1" stop-color="#2684FF"></stop>
    </linearGradient>
  </defs>
</svg>
