<?xml version="1.0" encoding="UTF-8"?>
<svg xmlns="http://www.w3.org/2000/svg" width="70" height="40" viewBox="0 0 70 40" fill="none">
  <path d="M16.1155 3.96863C18.7719 -0.0894815 24.2081 -1.22119 28.2576 1.44088C32.3071 4.10295 33.4364 9.55073 30.78 13.6088L16.1023 36.0314C13.4459 40.0895 8.00969 41.2212 3.9602 38.5591C-0.0892855 35.8971 -1.2186 30.4493 1.43782 26.3912L16.1155 3.96863Z" fill="#FB275D"></path>
  <path d="M41.9627 3.96863C44.6191 -0.0894815 50.0553 -1.22119 54.1048 1.44088C58.1543 4.10295 59.2836 9.55073 56.6272 13.6088L41.9495 36.0314C39.2931 40.0895 33.8569 41.2212 29.8074 38.5591C25.7579 35.8971 24.6286 30.4493 27.285 26.3912L41.9627 3.96863Z" fill="#FFCC00"></path>
  <path d="M53.8977 26.3912C56.5541 22.3331 61.9903 21.2013 66.0398 23.8634C70.0893 26.5255 71.2186 31.9733 68.5622 36.0314C65.9058 40.0895 60.4696 41.2212 56.4201 38.5591C52.3706 35.8971 51.2413 30.4493 53.8977 26.3912Z" fill="#00CA72"></path>
</svg>
