<?xml version="1.0" encoding="UTF-8"?>
<svg xmlns="http://www.w3.org/2000/svg" width="57" height="57" viewBox="0 0 57 57" fill="none">
  <path d="M49.696 0.217407H6.99934C3.31395 0.217407 0.347656 3.17895 0.347656 6.85843V49.5764C0.347656 53.2559 3.31395 56.2174 6.99934 56.2174H49.696C53.3814 56.2174 56.3477 53.2559 56.3477 49.5764V6.85843C56.3477 3.17895 53.3814 0.217407 49.696 0.217407ZM24.4375 40.5123C24.4375 41.7687 23.4488 42.7559 22.1904 42.7559H12.842C11.5836 42.7559 10.5948 41.7687 10.5948 40.5123V12.7815C10.5948 11.5251 11.5836 10.5379 12.842 10.5379H22.1904C23.4488 10.5379 24.4375 11.5251 24.4375 12.7815V40.5123ZM46.0106 27.7687C46.0106 29.0251 45.0218 30.0123 43.8533 30.0123H34.4151C33.1566 30.0123 32.1679 29.0251 32.1679 27.7687V12.7815C32.1679 11.5251 33.1566 10.5379 34.4151 10.5379H43.7634C45.0218 10.5379 46.0106 11.5251 46.0106 12.7815V27.7687Z" fill="url(#paint0_linear_4584_32470)"></path>
  <defs>
    <linearGradient id="paint0_linear_4584_32470" x1="8734.95" y1="5880.22" x2="8734.95" y2="1.15793" gradientUnits="userSpaceOnUse">
      <stop stop-color="#0052CC"></stop>
      <stop offset="1" stop-color="#2684FF"></stop>
    </linearGradient>
  </defs>
</svg>
