<?xml version="1.0" encoding="UTF-8"?>
<svg xmlns="http://www.w3.org/2000/svg" width="66" height="66" viewBox="0 0 66 66" fill="none">
  <g clip-path="url(#clip0_9766_2915)">
    <path d="M21.393 50.6385C21.92 50.4039 22.4539 50.1881 22.9928 49.9857C23.6012 49.757 24.2145 49.542 24.8361 49.3549C25.6098 49.1218 26.3899 48.9109 27.1807 48.7431C28.2476 48.5161 29.3264 48.3494 30.4121 48.2437C29.7984 50.1684 29.1271 52.0744 28.3991 53.9589C28.4291 54.3267 28.4483 54.6954 28.4568 55.0644C29.9531 54.7685 31.4747 54.6194 33 54.6191C34.5549 54.6191 36.0731 54.7743 37.5432 55.0644C37.5517 54.6954 37.5709 54.3267 37.6009 53.9589C36.8728 52.0744 36.2015 50.1685 35.5879 48.2437C36.6746 48.3491 37.7533 48.5167 38.8193 48.7431C39.6098 48.9109 40.3899 49.1218 41.1636 49.3549C41.7855 49.542 42.3988 49.757 43.0072 49.9857C43.5463 50.1884 44.0805 50.4042 44.6075 50.6388C48.4169 52.3324 51.8106 54.8375 54.5513 57.9789C61.5587 51.9278 66 42.9853 66 33C66 14.7747 51.2253 0 33 0C14.7747 0 0 14.7747 0 33C0 42.9853 4.44134 51.9276 11.4487 57.9789C14.1896 54.8374 17.5834 52.3322 21.393 50.6385Z" fill="#A5DBE8"></path>
    <path d="M44.6075 50.6392L46.656 57.6834L47.2372 57.7108C47.6143 57.7108 47.8796 57.81 47.8796 58.1872C47.8796 58.8142 47.9121 59.5188 47.9722 60.1339C48.4826 60.5673 49.1042 61.0561 49.5755 61.531C51.3402 60.5033 53.0059 59.3143 54.5513 57.9794C51.8106 54.838 48.4169 52.3329 44.6075 50.6392ZM40.6018 50.5688L43.0072 49.9862C42.3988 49.7575 41.7854 49.5425 41.1636 49.3553C40.3899 49.1222 39.6098 48.9114 38.8193 48.7435C37.7524 48.5166 36.6735 48.3499 35.5879 48.2441C36.2015 50.1689 36.8728 52.0749 37.6009 53.9593C37.5709 54.3272 37.5516 54.6958 37.5431 55.0648C39.2475 55.401 40.9233 55.9852 42.4728 56.6705L40.6018 50.5688Z" fill="#525353"></path>
    <path d="M16.4238 61.5306C16.8069 61.7538 17.1939 61.9717 17.5873 62.1798C17.725 61.5185 17.9452 60.6022 18.0117 59.9218C17.5012 60.3552 16.8951 61.0557 16.4238 61.5306ZM42.432 56.6092C40.8644 55.9148 39.2245 55.3967 37.5425 55.0644C36.0462 54.7686 34.5246 54.6194 32.9994 54.6191C31.4442 54.6191 29.9262 54.7743 28.4562 55.0644C26.7521 55.4003 24.9739 55.91 23.425 56.595L23.2602 57.6214H42.739L42.432 56.6092Z" fill="black"></path>
    <path d="M17.9525 60.1174C18.0129 59.5023 18.0564 58.9539 18.0564 58.3266C18.0564 57.9497 18.315 57.7081 18.6922 57.7081L19.3107 57.6865L21.3936 50.6387C17.584 52.3324 14.1901 54.8376 11.4492 57.9791C12.9946 59.314 14.6603 60.503 16.425 61.5307C16.8963 61.0554 17.3876 60.6004 17.8976 60.1669" fill="#525353"></path>
    <path d="M48.2245 61.3708C48.3581 62.0411 48.3882 62.1747 48.4125 62.1796C48.8047 61.9712 49.1926 61.7547 49.576 61.5304C49.0996 61.0499 48.6032 60.5898 48.0879 60.1514L48.2245 61.3708Z" fill="black"></path>
    <path d="M42.4323 56.6088L42.7393 57.621H46.7236L44.6072 50.6384C44.0804 50.4049 43.5467 50.1872 43.007 49.9854L40.6016 50.568L42.4323 56.6088Z" fill="#AA9678"></path>
    <path d="M19.3457 59.0316C19.3666 59.017 19.3877 59.0023 19.4084 58.9873H19.3485C19.348 59.002 19.3465 59.017 19.3457 59.0316Z" fill="#C4B6A1"></path>
    <path d="M46.6519 58.9873H46.5918L46.6544 59.0316C46.6539 59.017 46.6524 59.002 46.6519 58.9873Z" fill="#AA9678"></path>
    <path d="M46.5817 58.8857L32.9707 58.9012L32.9991 66.0003C38.0646 66.0003 42.8619 64.8559 47.1512 62.8161C46.8712 61.5858 46.8431 60.2607 46.7974 58.9711C46.7768 58.9561 46.5817 58.8857 46.5817 58.8857Z" fill="#AA9678"></path>
    <path d="M32.9778 58.9304C32.9778 58.9304 19.2919 58.9131 19.271 58.9278C19.2256 60.2176 18.9595 61.748 18.8477 62.8159C23.1369 64.8557 27.9343 66.0001 32.9998 66.0001L33.0075 58.9533L32.9778 58.9304Z" fill="#C4B6A1"></path>
    <path d="M54.5819 32.7861C54.5829 32.7949 54.5855 32.8026 54.5866 32.8114C54.5873 32.8168 54.5889 32.8217 54.5896 32.8269V32.8289C54.6054 32.955 54.6113 33.0867 54.6141 33.2195C54.6147 33.244 54.6188 33.2669 54.6188 33.2912L54.619 33.3002L54.6188 33.31C54.6185 33.3363 54.6141 33.3608 54.6139 33.3868C54.6121 33.5148 54.6041 33.6427 54.5899 33.7699V33.7717L54.5863 33.7906C54.5853 33.8006 54.5822 33.8096 54.5809 33.8194C54.5636 33.9509 54.5388 34.0813 54.5069 34.21L54.5064 34.2118L54.511 34.2069L54.5128 34.201V34.2013L55.3765 33.2971L54.5059 32.3857L54.5061 32.3875C54.5386 32.5146 54.5634 32.6482 54.5819 32.7861Z" fill="#676A6A"></path>
    <path d="M54.5822 33.8194C54.5845 33.8023 54.5889 33.7871 54.5912 33.7699C54.6064 33.6461 54.6121 33.5169 54.6152 33.3867C54.6154 33.3574 54.6201 33.3298 54.6201 33.3001C54.6201 33.2725 54.6159 33.2468 54.6154 33.2194C54.6139 33.0889 54.6057 32.9585 54.5909 32.8288C54.5889 32.8139 54.585 32.8007 54.5832 32.786C54.5657 32.6518 54.5403 32.5188 54.5074 32.3875C54.496 32.3431 54.4803 32.3037 54.4672 32.2609C54.3891 32.0026 54.2826 31.7744 54.1562 31.5849C54.1079 31.5129 54.055 31.444 53.998 31.3786C53.9458 31.3209 53.8887 31.2679 53.8273 31.2201C53.8046 31.2028 53.7806 31.1907 53.7574 31.1757C53.6863 31.129 53.6093 31.0918 53.5285 31.0651C53.4522 31.0398 53.3725 31.0261 53.2921 31.0244C53.2111 31.0244 53.1327 31.0414 53.0556 31.0651C52.9747 31.0917 52.8976 31.1289 52.8265 31.1757C52.8038 31.1907 52.7795 31.2026 52.7571 31.2198C52.6509 31.3026 52.5576 31.4007 52.4802 31.5109C52.4621 31.5352 52.4447 31.56 52.4279 31.5852C52.3015 31.7746 52.1948 32.0028 52.117 32.2611L52.1072 32.2921C52.0726 32.4107 52.0458 32.5355 52.0234 32.6636C52.0167 32.7028 52.0076 32.7404 52.0022 32.7806C51.9816 32.924 51.971 33.0735 51.9685 33.2267C51.9682 33.2478 51.9648 33.2679 51.9648 33.289H51.97C51.97 34.5461 52.5648 35.565 53.2982 35.565C53.4246 35.565 53.546 35.532 53.6618 35.4755C53.7312 35.4415 53.7967 35.4001 53.8572 35.3521C53.8822 35.3319 53.9057 35.3077 53.9296 35.285C53.9882 35.2304 54.0438 35.1685 54.0967 35.0997C54.1333 35.0514 54.1694 35.0032 54.2029 34.9494C54.2243 34.9151 54.2439 34.8779 54.2638 34.8413C54.3009 34.7728 54.3359 34.7013 54.3677 34.6255C54.3795 34.5982 54.3916 34.5717 54.4025 34.5436C54.4429 34.4381 54.4783 34.3267 54.5082 34.2099C54.5399 34.0854 54.5636 33.9545 54.5822 33.8194ZM53.3398 32.9972C53.0647 32.9972 52.8417 32.6149 52.8417 32.1436C52.8417 31.6726 53.0647 31.2902 53.3398 31.2902C53.6148 31.2902 53.8376 31.6726 53.8376 32.1436C53.8376 32.6149 53.6148 32.9972 53.3398 32.9972Z" fill="black"></path>
    <path d="M53.3399 31.29C53.0648 31.29 52.8418 31.6724 52.8418 32.1434C52.8418 32.6147 53.0648 32.997 53.3399 32.997C53.615 32.997 53.8377 32.6147 53.8377 32.1434C53.8377 31.6724 53.615 31.29 53.3399 31.29Z" fill="white"></path>
    <path d="M52.1155 32.261C52.1933 32.0027 52.3001 31.7745 52.4264 31.585C52.4434 31.5592 52.4607 31.5353 52.4788 31.5108C52.5559 31.4004 52.6493 31.3023 52.7556 31.2197C52.7781 31.2024 52.8023 31.1906 52.825 31.1756C52.8961 31.1286 52.9732 31.0914 53.0542 31.065C53.131 31.0408 53.2096 31.0243 53.2906 31.0243C53.3716 31.0243 53.4502 31.0408 53.527 31.065C53.6078 31.0917 53.6848 31.1289 53.756 31.1756C53.7792 31.1906 53.8031 31.2027 53.8258 31.22C53.8851 31.2653 53.9418 31.319 53.9965 31.3785C54.0536 31.4438 54.1064 31.5127 54.1548 31.5848C54.2811 31.7742 54.3876 32.0024 54.4657 32.2607V32.2613L53.2906 26.8789L52.1155 32.261Z" fill="#909393"></path>
    <path d="M37.7174 33.2499C37.7159 33.1416 37.7089 33.0346 37.6968 32.9294C37.6965 32.9282 37.696 32.9266 37.696 32.9251C37.6838 32.8222 37.6665 32.72 37.6442 32.6188L37.6421 32.611C37.62 32.5123 37.5931 32.4148 37.5614 32.3187L37.5589 32.3122C37.5274 32.217 37.4911 32.1233 37.4501 32.0317C37.4496 32.0299 37.4483 32.0281 37.4475 32.0261C37.12 31.2972 36.5258 30.7216 35.7869 30.4173L35.7779 30.414C35.5981 30.3406 35.4119 30.2844 35.2215 30.2461C35.2166 30.2454 35.212 30.2451 35.2071 30.2441C35.0107 30.2053 34.811 30.1857 34.6108 30.1855C34.4099 30.1855 34.2148 30.2062 34.0248 30.2425L34.0047 30.2456C33.8157 30.2833 33.6334 30.3384 33.4584 30.4086L33.4444 30.414C33.2674 30.4858 33.0975 30.5739 32.9368 30.6772C32.7762 30.7808 32.6254 30.8987 32.4867 31.0289L32.4833 31.0394L32.4717 31.042C32.2495 31.2534 32.0594 31.496 31.9074 31.7623L31.9017 31.7719C31.8553 31.8536 31.8133 31.9387 31.7746 32.0253C31.7705 32.0346 31.7653 32.0433 31.7614 32.0526C31.7261 32.1328 31.6957 32.2158 31.6673 32.2994C31.6619 32.3159 31.6547 32.3313 31.6496 32.3476C31.6248 32.4257 31.6047 32.5059 31.5856 32.586C31.5807 32.6092 31.5732 32.6314 31.5683 32.6544C31.5518 32.7338 31.5405 32.815 31.5299 32.8964C31.5268 32.9215 31.5214 32.9454 31.5188 32.9704C31.4865 33.2792 31.5007 33.591 31.5611 33.8955C31.5616 33.8993 31.5619 33.9037 31.5629 33.9078C31.6019 34.102 31.6591 34.2891 31.7326 34.4683C31.7336 34.4709 31.7341 34.4735 31.7354 34.4758C31.8841 34.8356 32.0989 35.1644 32.3686 35.4452C32.58 35.6656 32.8234 35.8546 33.091 36.0057L33.0948 36.008C33.1784 36.0549 33.2647 36.0972 33.3527 36.1364C33.3599 36.1395 33.3668 36.1436 33.3743 36.1467C33.4558 36.1823 33.5401 36.2129 33.6249 36.2416C33.6393 36.2465 33.6533 36.2526 33.6677 36.2573C33.7461 36.2823 33.827 36.3024 33.908 36.321C33.9299 36.3261 33.951 36.3333 33.9732 36.338C34.0518 36.3542 34.1328 36.3653 34.2143 36.3759C34.2388 36.3787 34.263 36.3844 34.288 36.387C35.0141 36.4635 35.7439 36.2814 36.349 35.8729C36.68 35.6492 36.9651 35.3642 37.1889 35.0332C37.5356 34.5198 37.7206 33.9143 37.72 33.2948C37.72 33.2873 37.719 33.2803 37.719 33.2734C37.7187 33.2654 37.7177 33.2579 37.7174 33.2499ZM34.6108 32.8856C34.4574 32.8856 34.3055 32.8554 34.1638 32.7967C34.0221 32.7379 33.8934 32.6519 33.7849 32.5434C33.6765 32.4349 33.5904 32.3062 33.5318 32.1645C33.4731 32.0227 33.4429 31.8709 33.4429 31.7175C33.4429 31.5641 33.4731 31.4122 33.5319 31.2705C33.5906 31.1288 33.6766 31 33.7851 30.8916C33.8936 30.7831 34.0223 30.6971 34.1641 30.6384C34.3058 30.5798 34.4577 30.5496 34.611 30.5496C34.9208 30.5496 35.2179 30.6727 35.4369 30.8918C35.6559 31.1108 35.779 31.4079 35.7789 31.7177C35.7789 32.0275 35.6558 32.3246 35.4367 32.5436C35.2177 32.7626 34.9206 32.8857 34.6108 32.8856Z" fill="black"></path>
    <path d="M34.6112 30.5488C34.3015 30.5488 34.0045 30.6719 33.7854 30.8909C33.5664 31.1099 33.4434 31.407 33.4434 31.7167C33.4434 32.0265 33.5664 32.3235 33.7854 32.5425C34.0045 32.7616 34.3015 32.8846 34.6112 32.8846C34.921 32.8846 35.2181 32.7616 35.4371 32.5425C35.6561 32.3235 35.7791 32.0265 35.7791 31.7167C35.7791 31.407 35.6561 31.1099 35.4371 30.8909C35.2181 30.6719 34.921 30.5488 34.6112 30.5488Z" fill="white"></path>
    <path d="M32.4721 31.0418L32.4837 31.0393L32.487 31.0287L34.6284 24.4797V22.947L34.6282 22.9298C33.4195 22.6795 32.1886 22.5525 30.9543 22.5508C30.5354 22.5508 30.1198 22.5686 29.7068 22.5967C29.6467 22.6008 29.5864 22.6044 29.526 22.609C27.3767 22.7722 25.26 23.3325 23.3001 24.2271C21.6194 24.9946 20.0579 26.0055 18.6541 27.204L18.6518 27.2064C18.2762 27.528 17.9123 27.8631 17.561 28.2111C17.495 28.2755 17.4279 28.3394 17.3627 28.4049C17.0306 28.7399 16.7092 29.0855 16.3993 29.4411C16.332 29.5187 16.2657 29.5978 16.1992 29.6762C15.8864 30.0432 15.5853 30.4201 15.2963 30.8062C15.2724 30.8387 15.2499 30.8727 15.2262 30.9052C14.9521 31.2795 14.6894 31.6619 14.4383 32.0519C14.3891 32.128 14.3386 32.203 14.2904 32.2799C14.0867 32.6029 13.8972 32.9347 13.709 33.2673H23.4638L32.4721 31.0418Z" fill="#BBBCBD"></path>
    <path d="M40.7079 30.3049C40.7277 30.0494 40.744 29.7942 40.7571 29.5385C40.7749 29.1925 40.787 28.846 40.7937 28.4997C40.7989 28.2308 40.7981 27.9617 40.7968 27.6928C40.7968 27.6152 40.7986 27.5376 40.7978 27.4597C40.7898 26.7654 40.7643 26.0714 40.7213 25.3784L40.7153 25.3745L40.7128 25.3696C40.4551 25.2215 40.197 25.0741 39.9386 24.9272L39.9205 24.9169L39.7186 24.8027L39.715 24.8006L39.575 24.7223L39.5475 24.7068C39.5137 24.688 39.4797 24.6696 39.4456 24.6514C38.9972 24.4186 38.5397 24.2037 38.0743 24.0071C36.9649 23.5386 35.4707 23.1279 34.6289 22.9297V24.4797L36.7515 31.0392L36.7538 31.0446C36.9729 31.2534 37.1614 31.4934 37.3125 31.758C37.362 31.8446 37.4074 31.9343 37.4483 32.0258C37.4494 32.0279 37.4504 32.0297 37.4509 32.0315C37.4919 32.1228 37.528 32.2164 37.5597 32.312L37.5623 32.3184C37.5938 32.4141 37.6208 32.5115 37.643 32.6108L37.6451 32.6185C37.6672 32.7188 37.6845 32.8212 37.6969 32.9248C37.6969 32.9264 37.6974 32.9279 37.6976 32.9292C37.7098 33.0344 37.7167 33.1414 37.7183 33.2497L37.7263 33.2672H40.3253C40.4996 32.3134 40.625 31.3512 40.7009 30.3846C40.7027 30.358 40.7058 30.3315 40.7079 30.3049Z" fill="#E3DDDB"></path>
    <path d="M44.1067 27.9854C44.1047 27.9885 44.1033 27.9922 44.1016 27.9953L44.1067 27.9854Z" fill="#FCB03F"></path>
    <path d="M32.4863 31.0284C32.626 30.8976 32.7773 30.7796 32.9383 30.676C33.0984 30.5731 33.2677 30.4852 33.4441 30.4136C33.4487 30.4115 33.4536 30.4102 33.458 30.4081C33.6347 30.3371 33.8176 30.2826 34.0043 30.2452L34.0244 30.2421C34.2175 30.2046 34.4137 30.1856 34.6104 30.1851C34.8146 30.1851 35.0137 30.2058 35.2068 30.2437C35.2117 30.2447 35.2163 30.245 35.2212 30.2457C35.4147 30.2846 35.604 30.3419 35.7866 30.4169C36.1446 30.5646 36.4722 30.7773 36.7526 31.0444L36.7503 31.039L34.6277 24.4795L32.4863 31.0284Z" fill="#909393"></path>
    <path d="M31.7336 34.4683C31.6593 34.2873 31.6025 34.0997 31.564 33.9078C31.5629 33.9037 31.5627 33.8993 31.5622 33.8955C31.5018 33.591 31.4875 33.2791 31.5199 32.9704C31.5225 32.9454 31.5279 32.9214 31.531 32.8964C31.5415 32.815 31.5529 32.7338 31.5694 32.6544C31.5743 32.6314 31.5818 32.6092 31.5867 32.586C31.6057 32.5059 31.6259 32.4257 31.6506 32.3476C31.656 32.3313 31.6627 32.3158 31.6684 32.2993C31.6967 32.2158 31.7272 32.1328 31.7625 32.0526C31.7664 32.0433 31.7715 32.0346 31.7756 32.0253C31.8143 31.9387 31.8563 31.8536 31.9027 31.7719L31.9084 31.7623C32.0605 31.496 32.2506 31.2534 32.4728 31.042L23.4645 33.2674H23.4473L32.3696 35.4452C32.1 35.1644 31.8852 34.8356 31.7365 34.4758C31.7352 34.4735 31.7346 34.4709 31.7336 34.4683Z" fill="#676A6A"></path>
    <path d="M52.0015 32.7804C52.0071 32.7401 52.0156 32.7025 52.0226 32.6633C52.045 32.5352 52.0718 32.4104 52.1064 32.2918C52.1102 32.2784 52.1118 32.2632 52.1159 32.25L53.2913 26.8679L53.291 23.7992C52.3307 23.0059 51.3023 22.5723 50.2316 22.5723C48.8786 22.5723 47.6171 23.3194 46.6738 24.2421C45.6415 25.252 44.8438 26.5225 44.1988 27.8046C44.1691 27.8636 44.1387 27.9203 44.1093 27.9796C44.3081 28.1518 44.5048 28.3264 44.6989 28.504C45.1376 28.9068 45.5688 29.3177 45.9921 29.7366C46.1896 29.9315 46.3835 30.1306 46.5779 30.3288C46.7841 30.5389 46.9906 30.7485 47.1938 30.962C47.5653 31.3522 47.9316 31.7474 48.2926 32.1474C48.6023 32.4891 48.9087 32.8338 49.2117 33.1815L49.2122 33.182C49.263 33.2351 49.2985 33.2733 49.3122 33.2888H51.963C51.963 33.2674 51.9674 33.2478 51.9677 33.2264C51.9703 33.0732 51.9808 32.9237 52.0015 32.7804ZM44.109 27.9938L44.1062 27.9858L44.1016 27.9946L44.1132 28.0059C44.1119 28.0018 44.1105 27.9978 44.109 27.9938Z" fill="#E3DDDB"></path>
    <path d="M12.1115 36.6538L12.1352 36.5945C12.4912 35.6709 12.9016 34.7693 13.3645 33.8944C13.4361 33.7583 13.5063 33.6216 13.5805 33.4868C13.6215 33.4123 13.6679 33.3411 13.7097 33.2669C13.8979 32.9343 14.0874 32.6025 14.291 32.2795C14.3393 32.2024 14.3898 32.1276 14.439 32.0515C14.6901 31.6615 14.9528 31.2791 15.2269 30.9048C15.2506 30.8723 15.2731 30.8383 15.297 30.8058C15.586 30.4197 15.8871 30.0428 16.1999 29.6758C16.2664 29.5974 16.3324 29.5185 16.4 29.4407C16.7099 29.0851 17.0313 28.7395 17.3634 28.4045C17.4289 28.3391 17.4957 28.2751 17.5617 28.2107C17.913 27.8627 18.2769 27.5276 18.6525 27.206L18.6548 27.2036C20.1375 22.2371 24.925 19.1852 30.293 19.1852C32.4534 19.1852 34.602 19.8078 36.4433 20.9342C38.3321 22.0894 39.6198 23.2181 40.6196 25.1912L40.6346 25.2208C40.6598 25.2708 40.6882 25.3188 40.713 25.3693L40.7155 25.3742L40.7215 25.3781C41.5611 25.8976 42.3609 26.4788 43.1142 27.117C43.3676 27.3309 43.6162 27.5504 43.8598 27.7755C43.9403 27.8492 44.023 27.9193 44.1024 27.9944C44.104 27.9913 44.1053 27.9882 44.1071 27.9853C44.1078 27.9832 44.1088 27.9811 44.1099 27.9791C44.1372 27.9232 44.164 27.8662 44.1916 27.811C44.948 23.0371 47.3514 20.434 49.8351 20.434C51.7074 20.434 53.0684 21.5503 54.0963 24.5554L54.1068 24.5876L54.1094 24.5912C54.4125 24.9219 54.6955 25.2704 54.9568 25.6349L54.9563 25.6346C54.9617 25.6418 54.9674 25.6485 54.9728 25.656C54.9875 25.6996 55.0001 25.7444 55.0143 25.788L54.9757 25.6312C51.8858 16.4835 43.2336 9.89746 33.0428 9.89746C20.2604 9.89746 9.89844 20.2595 9.89844 33.0418C9.89844 35.5617 10.3011 37.9877 11.0488 40.2451L11.0519 40.2319C11.3147 39.0143 11.669 37.8182 12.1115 36.6538Z" fill="#525353"></path>
    <path d="M55.321 33.2981L54.5138 34.2012V34.201L54.512 34.2069C54.4813 34.3258 54.4437 34.4366 54.4022 34.5436C54.3913 34.5717 54.3792 34.5983 54.3674 34.6256C54.3364 34.6992 54.3017 34.7713 54.2635 34.8414C54.2436 34.878 54.224 34.9151 54.2026 34.9494C54.1691 35.003 54.133 35.0518 54.0964 35.0997C54.0459 35.166 53.99 35.228 53.9293 35.2851C53.9054 35.3075 53.8821 35.332 53.8569 35.3521C53.7964 35.4002 53.7309 35.4416 53.6615 35.4756C53.5457 35.5321 53.4243 35.5651 53.2979 35.5651C52.5645 35.5651 51.9697 34.5462 51.9697 33.2891H49.3047L49.3062 33.2912C49.8069 33.8699 50.2997 34.4553 50.7845 35.0474C51.2504 35.6167 51.7106 36.1907 52.1649 36.7693L52.2319 36.8541C52.6624 37.4037 53.089 37.9563 53.5117 38.5119L53.6349 38.6727C54.0839 39.2638 54.53 39.857 54.9732 40.4524C55.7531 38.1436 56.1628 35.726 56.187 33.2891L55.4378 33.2607L55.321 33.2981Z" fill="white"></path>
    <path d="M29.5262 22.6091C29.5866 22.6045 29.6469 22.6009 29.707 22.5968C30.1222 22.5673 30.5383 22.552 30.9545 22.5509C32.2096 22.5509 33.4357 22.6852 34.6284 22.9299C35.4701 23.1281 36.9647 23.5388 38.074 24.0073C38.5394 24.2039 38.9969 24.4188 39.4453 24.6515L39.5472 24.707L39.5748 24.7224C39.6163 24.7456 39.6616 24.7706 39.7147 24.8008L39.7183 24.8029L39.9202 24.9171L39.9383 24.9274C40.2234 25.089 40.539 25.2703 40.6596 25.3394L40.6906 25.3572L40.7125 25.3698C40.6877 25.3193 40.6594 25.2713 40.6341 25.2213L40.6191 25.1916C39.6194 23.2186 38.0802 21.5263 36.1915 20.3711C34.3502 19.2447 32.2016 18.6221 30.0408 18.6221C24.6732 18.6221 20.137 22.2376 18.6543 27.2041C20.0581 26.0056 21.6197 24.9947 23.3003 24.2272C25.2602 23.3326 27.3769 22.7723 29.5262 22.6091Z" fill="black"></path>
    <path d="M54.9717 25.6563C54.9663 25.6489 54.9606 25.6422 54.9552 25.6349L54.9557 25.6352C54.6943 25.2707 54.4114 24.9222 54.1083 24.5916L54.1008 24.5825C53.9717 24.4423 53.8383 24.306 53.7009 24.1739C53.6502 24.1252 53.5976 24.0826 53.5463 24.036C53.4614 23.9589 53.3771 23.8792 53.291 23.8086V26.8789L54.4664 32.2615C54.4793 32.3033 54.4947 32.3422 54.5061 32.3855L55.3203 33.2979L55.3283 33.2889H56.1803C56.1814 33.21 56.1863 33.1321 56.1863 33.053V33.0517C56.1858 30.5834 55.7898 28.1311 55.0132 25.7881C54.999 25.7445 54.9864 25.6999 54.9717 25.6563Z" fill="#BBBCBD"></path>
    <path d="M46.6732 24.2416C47.6165 23.3189 48.878 22.5718 50.231 22.5718C51.3017 22.5718 52.3301 23.0054 53.2904 23.7987L53.2907 23.808C53.3768 23.8786 53.4611 23.9583 53.5459 24.0354C53.5972 24.082 53.6498 24.1246 53.7006 24.1733C53.838 24.3054 53.9714 24.4417 54.1005 24.5819L54.108 24.591C54.1073 24.5898 54.1065 24.5888 54.1056 24.5879L54.1054 24.5876L54.0948 24.5551C53.0669 21.5501 51.4084 19.5977 49.5367 19.5977C47.0527 19.5977 44.9466 23.0369 44.1902 27.8108L44.1982 27.8041C44.8432 26.522 45.6409 25.2515 46.6732 24.2416ZM43.3167 53.5822C43.3167 53.5822 42.9823 53.3172 42.5577 52.8287C42.3601 52.6027 42.176 52.3654 42.0062 52.1179C41.9521 52.039 41.8985 51.957 41.8451 51.8724C41.6845 51.6185 41.5564 51.3094 41.4151 51.0039C41.2516 50.6501 41.2511 50.4148 41.1573 50.0853C41.0882 49.8426 41.0334 49.5962 40.993 49.3472C40.9279 48.9443 40.9017 48.5361 40.9149 48.1282C40.9221 47.8928 40.9464 47.6492 40.9817 47.4012C41.0168 47.1549 41.0647 46.9106 41.1253 46.6693C41.3125 45.9208 41.636 45.1237 42.1408 44.2822L42.2692 43.9939C42.4342 43.7191 42.4708 43.7312 42.6276 43.4665C44.8355 39.7403 46.0266 36.9227 45.4439 32.5842C45.38 32.1397 45.3075 31.6965 45.2263 31.2549C45.1755 31.575 45.1218 31.8946 45.0652 32.2137C45.0433 32.3127 44.9832 32.4202 44.9605 32.4875C44.0014 35.326 42.4917 37.414 40.3194 39.7717C40.0169 40.0987 39.7108 40.4223 39.401 40.7424C38.8478 41.3144 38.2887 41.8807 37.724 42.4414C37.4888 42.6752 37.2491 42.9124 37.0052 43.1542C36.7811 43.376 36.5025 43.8501 36.1699 44.1994C35.9647 44.7741 35.7313 45.4222 35.5341 46.1039C35.4452 46.0701 35.3603 46.0399 35.2699 46.0049C31.05 44.3727 28.2246 42.1918 28.2246 42.1918C28.2246 42.1918 30.3985 45.0224 34.061 47.6794C34.3977 47.9234 34.747 48.1495 35.1074 48.3569C34.9564 50.7484 36.0113 53.0442 40.7734 53.7289C41.5785 53.8447 42.403 53.8393 43.2334 53.7457C43.2252 53.7209 43.2798 53.7215 43.2754 53.7078C43.2708 53.6939 43.3198 53.6573 43.3198 53.6573" fill="black"></path>
    <path d="M40.7697 47.4272C44.9973 48.1094 51.2541 47.9975 57.7495 44.9564C57.906 44.8832 58.0784 45.076 58.2349 44.9992C58.2349 44.9992 53.7957 49.5333 48.494 52.0967C48.3391 52.1715 48.1862 52.2512 48.0297 52.3223C47.5174 52.5564 46.9964 52.7604 46.4733 52.9486C45.4474 53.3172 44.4079 53.597 43.3759 53.7261C43.3285 53.7323 43.281 53.7413 43.2336 53.7465C43.2271 53.727 43.2206 53.7075 43.2143 53.688L43.2073 53.6666C43.2073 53.6666 42.8727 53.4013 42.448 52.9127C42.2503 52.687 42.0662 52.4496 41.8968 52.2019C41.6602 51.8583 41.4531 51.4952 41.2778 51.1165C41.1297 50.7969 41.0067 50.4661 40.9099 50.1273C40.728 49.4915 40.6462 48.8313 40.6673 48.1703C40.6762 47.9269 40.6985 47.6842 40.7341 47.4432L40.7697 47.4272Z" fill="#9F2254"></path>
    <path d="M37.7395 42.6135C38.3044 42.0529 38.8635 41.4865 39.4168 40.9145C39.7265 40.5943 40.0326 40.2708 40.3351 39.9438C42.5072 37.5861 44.1018 35.3798 45.0611 32.5413C45.0835 32.474 45.1062 32.3853 45.1281 32.2855L45.1384 32.2394C45.1609 32.1334 45.1828 32.0156 45.2047 31.8828C45.2135 31.7913 45.5004 31.6067 45.5084 31.5208C45.2679 30.2849 44.7136 28.9855 44.1085 27.9934C44.11 27.9974 44.1114 28.0015 44.1126 28.0056L44.101 27.9942C44.0216 27.9192 43.9388 27.8491 43.8584 27.7753C43.6148 27.5503 43.3662 27.3308 43.1128 27.1169C42.3594 26.4787 41.5596 25.8975 40.7201 25.3779C40.7623 26.0725 40.7894 26.7663 40.7966 27.4593C40.7977 27.5371 40.7956 27.6147 40.7956 27.6923C40.7969 27.9612 40.7977 28.2304 40.7925 28.4993C40.7858 28.8457 40.7736 29.192 40.7559 29.538C40.7427 29.7937 40.7265 30.049 40.7066 30.3045C40.7046 30.331 40.7015 30.3576 40.6997 30.3841C40.6238 31.3508 40.4984 32.3129 40.3241 33.2667L40.0188 34.7102C39.3812 37.2951 38.0862 39.6396 37.0215 42.0605C36.7392 42.7024 36.4713 43.3516 36.2364 44.0129L36.1699 44.1995C36.4495 43.9046 36.7331 43.6134 37.0207 43.3263C37.2649 43.0847 37.5046 42.8473 37.7395 42.6135Z" fill="#FCB03F"></path>
    <path d="M23.7692 56.5163C25.3184 55.831 26.7521 55.4008 28.4563 55.0648C28.4478 54.6958 28.4285 54.3272 28.3985 53.9593C29.1265 52.0748 29.7978 50.1689 30.4115 48.2441C29.3259 48.3499 28.247 48.5166 27.1801 48.7435C26.3894 48.9114 25.6092 49.1222 24.8355 49.3553C24.214 49.5425 23.6006 49.7575 22.9922 49.9862L25.3978 50.5688L23.4622 56.6444L23.7692 56.5163Z" fill="#525353"></path>
    <path d="M53.511 38.5117C53.0884 37.9561 52.6618 37.4035 52.2313 36.8539L52.1642 36.7691C51.7043 36.1833 51.2384 35.6023 50.7666 35.026C50.2874 34.4412 49.8003 33.8628 49.3056 33.2909C49.2744 33.2546 49.2432 33.2177 49.2115 33.1816C48.8038 32.7134 48.3899 32.2506 47.9699 31.7933C47.7137 31.5138 47.455 31.2368 47.1936 30.9621C46.9899 30.7495 46.7846 30.5384 46.5777 30.3289C46.3833 30.1307 46.1894 29.9316 45.9919 29.7367C45.5685 29.318 45.1373 28.9071 44.6988 28.5041C44.5045 28.3267 44.3078 28.1518 44.1089 27.9795C44.1078 27.9815 44.1068 27.9835 44.106 27.9857C44.5242 29.1876 45.0014 30.4045 45.2404 31.658C45.3026 31.9841 45.3539 32.3012 45.3956 32.6111C45.9783 36.9493 44.5882 39.7819 42.3805 43.5081C42.2189 43.7804 42.0565 44.0523 41.8935 44.3238C41.3887 45.1658 41.0654 45.9627 40.878 46.7111C40.8175 46.9525 40.7696 47.1968 40.7344 47.443C45.0638 48.1417 51.5741 48.2719 58.2352 44.999C58.2352 44.999 56.9289 43.0791 54.9633 40.4398C54.5232 39.8486 54.0801 39.2595 53.6343 38.6725C53.5935 38.6186 53.552 38.565 53.511 38.5117Z" fill="#DF0067"></path>
    <path d="M23.2325 57.7295L25.3982 50.568L22.9925 49.9854C22.4537 50.1877 21.9198 50.4035 21.3928 50.6381L19.248 57.7295L21.6424 57.7669L23.2325 57.7295Z" fill="#AA9678"></path>
    <path d="M24.7548 54.632C24.9662 54.7132 25.1812 54.7864 25.3957 54.8614C27.8527 55.7237 30.438 56.1636 33.0419 56.1626C36.0041 56.1643 38.9388 55.5955 41.6859 54.4874C41.8271 54.4306 41.9656 54.3682 42.1053 54.3087C42.3319 54.2124 42.557 54.1127 42.7805 54.0094C42.9801 53.9166 43.1796 53.8245 43.3761 53.7263C43.3286 53.7325 43.2812 53.7415 43.2338 53.7467C42.4034 53.8402 41.5789 53.8457 40.7737 53.7299C36.0117 53.0451 34.9567 50.7493 35.1078 48.3579C34.7473 48.1505 34.398 47.9243 34.0613 47.6803C30.3988 45.0233 28.225 42.1928 28.225 42.1928C28.225 42.1928 31.0503 44.3736 35.2702 46.0058C35.3607 46.0409 35.4455 46.0711 35.5345 46.1048C35.7317 45.4232 35.965 44.775 36.1702 44.2004L36.2367 44.0137C36.4716 43.3524 36.7395 42.7033 37.0218 42.0613C38.0865 39.6404 39.3815 37.2959 40.0191 34.7111L40.3244 33.2676H37.7199L37.7197 33.2678L37.7199 33.273L37.7189 33.2735C37.7189 33.2805 37.7199 33.2874 37.7199 33.2949C37.7206 33.9144 37.5356 34.5199 37.1888 35.0333C36.8509 35.5327 36.3759 35.9238 35.8209 36.1595C35.3375 36.3641 34.81 36.4424 34.2879 36.3871C34.2629 36.3845 34.239 36.3791 34.2142 36.376C34.1327 36.3655 34.0518 36.3544 33.9731 36.3381C33.951 36.3332 33.9298 36.3263 33.9079 36.3211C33.827 36.3025 33.746 36.2824 33.6676 36.2574C33.6532 36.2525 33.6393 36.2466 33.6248 36.2417C33.54 36.2131 33.4557 36.1824 33.3742 36.1468C33.3668 36.1437 33.3598 36.1399 33.3526 36.1365C33.2647 36.0977 33.1787 36.0549 33.0948 36.0081L33.0909 36.0058C32.8241 35.8552 32.5807 35.6664 32.3685 35.4453L23.4461 33.2676H13.7086C13.6668 33.3418 13.6204 33.413 13.5794 33.4875C13.5052 33.6223 13.435 33.7592 13.3634 33.8951C13.1241 34.3471 12.8988 34.8064 12.6879 35.2723C12.4907 35.7079 12.306 36.149 12.1341 36.5952L12.1104 36.6545C11.6678 37.8189 11.3136 39.015 11.0508 40.2326C12.5837 44.9083 15.5664 48.9261 19.4653 51.7579C19.5787 51.8401 19.6983 51.9134 19.8133 51.9938C20.4731 52.457 21.1566 52.8855 21.8611 53.2774C22.793 53.7958 23.7599 54.2484 24.7548 54.632Z" fill="white"></path>
    <path d="M48.1026 60.1665C48.0402 59.5476 48.0078 58.9261 48.0056 58.304C48.0056 58.123 47.9337 57.9493 47.8057 57.8212C47.6777 57.6931 47.504 57.6212 47.323 57.6211H18.6769C18.4958 57.6212 18.3221 57.6931 18.1941 57.8212C18.066 57.9493 17.994 58.1229 17.9939 58.304C17.9939 58.931 17.9571 59.5513 17.897 60.1665C17.8302 60.8425 17.727 61.5145 17.5879 62.1795C18.0032 62.3991 18.4219 62.6129 18.8478 62.8155C19.1326 61.5726 19.2994 60.3056 19.3459 59.0313C19.3467 59.0166 19.3482 59.0017 19.3488 58.987H46.6511C46.6516 59.0017 46.6532 59.0166 46.6537 59.0313C46.7004 60.3056 46.8672 61.5726 47.152 62.8155C47.5765 62.6124 47.9965 62.4004 48.412 62.1795C48.2728 61.5145 48.1696 60.8425 48.1026 60.1665Z" fill="#8B7460"></path>
  </g>
  <defs>
    <clipPath id="clip0_9766_2915">
      <rect width="66" height="66" fill="white"></rect>
    </clipPath>
  </defs>
</svg>
