<?xml version="1.0" encoding="UTF-8"?>
<svg xmlns="http://www.w3.org/2000/svg" width="64" height="64" viewBox="0 0 64 64" fill="none">
  <g clip-path="url(#clip0_9761_2885)">
    <path d="M61.4923 46.8698C58.077 48.6513 40.386 55.9248 36.6194 57.8879C32.8528 59.8509 30.7609 59.8322 27.7849 58.4104C24.809 56.9886 5.98291 49.3842 2.58961 47.7622C0.892953 46.9512 0.00390625 46.2692 0.00390625 45.6244V39.1551C0.00390625 39.1551 24.5155 33.8191 28.4738 32.399C32.4321 30.9789 33.8013 30.928 37.1708 32.1615C40.5404 33.395 60.6746 37.0275 64.0017 38.2474V44.6268C64.0017 45.2664 63.2348 45.9841 61.4957 46.8732L61.4923 46.8698Z" fill="#A41E11"></path>
    <path d="M61.492 40.398C58.0766 42.1795 40.3856 49.4531 36.6191 51.4161C32.8525 53.3791 30.7605 53.3605 27.7846 51.9387C24.8086 50.5169 5.98257 42.9125 2.58926 41.2905C-0.804044 39.6685 -0.871911 38.5538 2.45862 37.2491L28.4717 27.1777C32.4283 25.7593 33.7992 25.7067 37.1688 26.9402C40.5383 28.1737 58.1224 35.1723 61.4479 36.4109C64.7733 37.6495 64.904 38.6335 61.4886 40.415L61.492 40.398Z" fill="#D82C20"></path>
    <path d="M61.4923 36.32C58.077 38.1015 40.386 45.375 36.6194 47.338C32.8528 49.3011 30.7609 49.2824 27.7849 47.8606C24.809 46.4388 5.98291 38.8344 2.58961 37.2124C0.892953 36.4014 0.00390625 35.7194 0.00390625 35.0746V28.6053C0.00390625 28.6053 24.5155 23.2693 28.4738 21.8492C32.4321 20.4291 33.8013 20.3782 37.1708 21.6117C40.5404 22.8452 60.6746 26.4777 64.0017 27.6976V34.077C64.0017 34.7166 63.2348 35.4343 61.4957 36.3234L61.4923 36.32Z" fill="#A41E11"></path>
    <path d="M61.492 29.8501C58.0766 31.6316 40.3856 38.9051 36.6191 40.8681C32.8525 42.8312 30.7605 42.8125 27.7846 41.3907C24.8086 39.9689 5.98257 32.3645 2.58926 30.7425C-0.804044 29.1205 -0.871911 28.0058 2.45862 26.7011L28.4717 16.6314C32.4283 15.2113 33.7992 15.1604 37.1688 16.3939C40.5383 17.6274 58.1224 24.6278 61.4513 25.8443C64.7801 27.0608 64.9074 28.0669 61.492 29.8484V29.8501Z" fill="#D82C20"></path>
    <path d="M61.4923 25.3793C58.077 27.1608 40.386 34.4343 36.6194 36.3991C32.8528 38.3638 30.7609 38.3434 27.7849 36.9216C24.809 35.4998 5.98291 27.8954 2.58961 26.2734C0.892953 25.4624 0.00390625 24.7804 0.00390625 24.1356V17.6629C0.00390625 17.6629 24.5155 12.3269 28.4738 10.9068C32.4321 9.48674 33.8013 9.43583 37.1708 10.6693C40.5404 11.9028 60.6746 15.5353 64.0017 16.7552V23.1346C64.0017 23.7743 63.2348 24.4919 61.4957 25.381L61.4923 25.3793Z" fill="#A41E11"></path>
    <path d="M61.492 18.9087C58.0766 20.6902 40.3856 27.9637 36.6191 29.9267C32.8525 31.8898 30.7605 31.8711 27.7846 30.4493C24.8086 29.0275 5.98257 21.4231 2.58926 19.8011C-0.804044 18.1791 -0.871911 17.0644 2.45862 15.7597L28.4717 5.69004C32.4283 4.26994 33.7992 4.21904 37.1688 5.45251C40.5383 6.68597 58.1224 13.6864 61.4513 14.9029C64.7801 16.1194 64.9074 17.1255 61.492 18.907V18.9087Z" fill="#D82C20"></path>
    <path d="M33.5982 16.2413L31.5927 12.9074L25.1895 12.3305L29.9673 10.6067L28.5336 7.95996L33.006 9.70751L37.2239 8.32644L36.0837 11.0614L40.3831 12.6733L34.8384 13.2501L33.5982 16.2413ZM22.916 22.8786L37.7448 20.6017L33.2656 27.1712L22.916 22.8786Z" fill="white"></path>
    <path d="M18.919 20.4851C23.2968 20.4851 26.8457 19.1095 26.8457 17.4125C26.8457 15.7155 23.2968 14.3398 18.919 14.3398C14.5411 14.3398 10.9922 15.7155 10.9922 17.4125C10.9922 19.1095 14.5411 20.4851 18.919 20.4851Z" fill="white"></path>
    <path d="M55.716 16.9648L46.9443 20.4293L46.9375 13.4951L55.716 16.9648Z" fill="#7A0C00"></path>
    <path d="M46.9475 20.4286L45.9973 20.8019L37.2324 17.3373L46.9424 13.4961L46.9475 20.4286Z" fill="#AD2115"></path>
  </g>
  <defs>
    <clipPath id="clip0_9761_2885">
      <rect width="64" height="64" fill="white"></rect>
    </clipPath>
  </defs>
</svg>
