<?xml version="1.0" encoding="UTF-8"?>
<svg xmlns="http://www.w3.org/2000/svg" width="76" height="59" viewBox="0 0 76 59" fill="none">
  <g clip-path="url(#clip0_9761_2782)">
    <path fill-rule="evenodd" clip-rule="evenodd" d="M0 35.3654C0 41.872 17.0091 47.1531 37.994 47.1531V58.936C17.0091 58.936 0 53.6596 0 47.1531V35.3654ZM76 35.3654V47.1507C76 49.9287 72.8919 52.4773 67.7166 54.4933L37.9916 47.1507V35.3654L67.7166 42.7056C72.8919 40.692 76.0024 38.1434 76 35.3654ZM37.994 0C58.9813 0 76 5.28595 76 11.7877V23.5825C76 26.3509 72.8919 28.9091 67.719 30.9155L37.994 23.5825V35.3654C17.0091 35.3654 0 30.0867 0 23.5825V11.7877C0 5.28595 17.0091 0 37.994 0Z" fill="#D33C44"></path>
  </g>
  <defs>
    <clipPath id="clip0_9761_2782">
      <rect width="76" height="59" fill="white"></rect>
    </clipPath>
  </defs>
</svg>
