<?xml version="1.0" encoding="UTF-8"?>
<svg xmlns="http://www.w3.org/2000/svg" width="51" height="61" viewBox="0 0 51 61" fill="none">
  <g clip-path="url(#clip0_9761_2762)">
    <path fill-rule="evenodd" clip-rule="evenodd" d="M16.4063 60.995C12.7332 59.4164 9.29928 55.3954 9.28931 51.2851C9.27934 46.8024 12.1301 42.9949 15.6786 40.4979C15.25 42.1013 15.0208 43.5707 16.0774 45.0054C17.0592 46.3407 18.7786 46.9861 20.4034 46.6386C24.1961 45.8096 24.3705 41.6545 22.1228 39.232C19.9 36.8343 17.747 34.1239 18.5942 30.6489C19.0178 28.9065 20.0944 27.2733 21.455 26.1067C20.4083 28.8469 23.3837 31.5474 25.3424 32.8927C28.7414 35.2259 32.4693 36.9932 35.5942 39.7284C38.8786 42.6027 41.3057 46.4897 40.8173 51.0021C40.284 55.8918 36.3866 59.2874 32.0158 61.005C41.2559 58.9746 50.81 51.8262 51.0043 41.6198C51.1688 33.2204 45.3825 26.757 38.2157 23.0537L37.8419 22.8502C38.0363 23.3267 38.1011 23.7288 38.0961 24.0912C38.1609 23.8232 38.2058 23.5501 38.2157 23.2672C38.2157 23.6047 38.1709 23.9373 38.0861 24.265L38.0961 24.0912C37.9915 24.538 37.812 24.9649 37.5678 25.3521L37.6725 25.238C36.2421 27.6009 32.3746 28.1122 30.4608 25.6649C27.3858 21.7332 30.5256 17.4889 30.9642 13.3239C31.5024 8.10156 28.2131 3.03312 24.1363 0C26.379 3.6189 23.4236 8.40438 21.0562 11.0751C18.7637 13.6664 15.9727 15.8358 13.4409 18.1888C10.7197 20.7205 8.10315 23.3863 5.87037 26.3549C1.39485 32.302 -1.34129 39.783 0.672191 47.1995C2.68069 54.6111 9.12484 59.3271 16.4063 60.995Z" fill="#EE4323"></path>
  </g>
  <defs>
    <clipPath id="clip0_9761_2762">
      <rect width="51" height="61" fill="white"></rect>
    </clipPath>
  </defs>
</svg>
