<?xml version="1.0" encoding="UTF-8"?>
<svg xmlns="http://www.w3.org/2000/svg" width="55" height="62" viewBox="0 0 55 62" fill="none">
  <path d="M28.0151 2.03529L2.75391 45.7871L5.02164 47.0964L30.2828 3.34461L28.0151 2.03529Z" fill="#E10098"></path>
  <path d="M52.7534 42.292H2.23047V44.9106H52.7534V42.292Z" fill="#E10098"></path>
  <path d="M4.5398 41.495L3.23047 43.7627L28.5003 58.3528L29.8097 56.0851L4.5398 41.495Z" fill="#E10098"></path>
  <path d="M26.4968 3.46859L25.1875 5.73633L50.4574 20.3265L51.7667 18.0587L26.4968 3.46859Z" fill="#E10098"></path>
  <path d="M28.5101 3.46063L3.24023 18.0508L4.54956 20.3185L29.8194 5.72836L28.5101 3.46063Z" fill="#E10098"></path>
  <path d="M26.9963 2.0354L24.7285 3.34473L49.9897 47.0965L52.2574 45.7872L26.9963 2.0354Z" fill="#E10098"></path>
  <path d="M6.85686 16.3135H4.23828V45.4951H6.85686V16.3135Z" fill="#E10098"></path>
  <path d="M50.769 16.3135H48.1504V45.4951H50.769V16.3135Z" fill="#E10098"></path>
  <path d="M48.8922 42.5741L26.9141 55.2637L28.0579 57.2448L50.0361 44.5553L48.8922 42.5741Z" fill="#E10098"></path>
  <path d="M54.2386 46.3461C53.6942 47.292 52.8815 48.0551 51.9033 48.5388C50.9251 49.0226 49.8253 49.2053 48.7432 49.0637C47.6611 48.9222 46.6453 48.4628 45.8244 47.7437C45.0035 47.0246 44.4144 46.0782 44.1317 45.0241C43.8489 43.9701 43.8853 42.8558 44.236 41.8224C44.5868 40.789 45.2363 39.8829 46.1023 39.2188C46.9683 38.5547 48.0118 38.1625 49.1008 38.0917C50.1898 38.0209 51.2754 38.2748 52.22 38.8213C53.4843 39.5526 54.4069 40.7556 54.7853 42.1663C55.1637 43.577 54.9671 45.0802 54.2386 46.3461Z" fill="#E10098"></path>
  <path d="M10.2952 20.977C9.75087 21.9228 8.93815 22.6859 7.95992 23.1697C6.98169 23.6535 5.88193 23.8361 4.79984 23.6946C3.71774 23.5531 2.70196 23.0937 1.88107 22.3746C1.06018 21.6555 0.471072 20.709 0.188324 19.655C-0.0944239 18.6009 -0.0581047 17.4867 0.292684 16.4533C0.643473 15.4199 1.29296 14.5138 2.15894 13.8497C3.02492 13.1856 4.06846 12.7933 5.15748 12.7225C6.24649 12.6518 7.33202 12.9057 8.27667 13.4521C9.54095 14.1835 10.4635 15.3865 10.8419 16.7972C11.2203 18.2079 11.0237 19.7111 10.2952 20.977Z" fill="#E10098"></path>
  <path d="M0.762675 46.347C0.216231 45.4023 -0.0376747 44.3168 0.0330959 43.2278C0.103866 42.1388 0.496132 41.0952 1.16024 40.2293C1.82435 39.3633 2.73045 38.7138 3.76384 38.363C4.79724 38.0122 5.91148 37.9759 6.96553 38.2586C8.01957 38.5414 8.96604 39.1305 9.68513 39.9514C10.4042 40.7723 10.8636 41.7881 11.0052 42.8701C11.1467 43.9522 10.964 45.052 10.4803 46.0302C9.99649 47.0085 9.23337 47.8212 8.28751 48.3655C7.0216 49.094 5.5184 49.2907 4.1077 48.9122C2.697 48.5338 1.49402 47.6113 0.762675 46.347Z" fill="#E10098"></path>
  <path d="M44.7099 20.9778C44.1635 20.0332 43.9096 18.9477 43.9804 17.8586C44.0511 16.7696 44.4434 15.7261 45.1075 14.8601C45.7716 13.9941 46.6777 13.3446 47.7111 12.9939C48.7445 12.6431 49.8587 12.6067 50.9128 12.8895C51.9668 13.1722 52.9133 13.7613 53.6324 14.5822C54.3515 15.4031 54.8109 16.4189 54.9524 17.501C55.094 18.5831 54.9113 19.6829 54.4275 20.6611C53.9438 21.6393 53.1806 22.452 52.2348 22.9964C50.9689 23.7249 49.4657 23.9215 48.055 23.5431C46.6443 23.1647 45.4413 22.2421 44.7099 20.9778Z" fill="#E10098"></path>
  <path d="M27.5054 61.789C26.4146 61.789 25.3483 61.4656 24.4413 60.8596C23.5344 60.2536 22.8275 59.3922 22.4101 58.3845C21.9926 57.3767 21.8834 56.2678 22.0962 55.198C22.309 54.1281 22.8343 53.1454 23.6056 52.3741C24.3769 51.6028 25.3596 51.0776 26.4294 50.8648C27.4992 50.652 28.6082 50.7612 29.6159 51.1786C30.6237 51.596 31.485 52.3029 32.091 53.2099C32.697 54.1168 33.0205 55.1831 33.0205 56.2739C33.0225 56.9987 32.8813 57.7168 32.6048 58.3869C32.3284 59.0569 31.9222 59.6657 31.4097 60.1782C30.8972 60.6908 30.2884 61.0969 29.6183 61.3734C28.9483 61.6498 28.2302 61.7911 27.5054 61.789Z" fill="#E10098"></path>
  <path d="M27.5054 11.0303C26.4146 11.0303 25.3483 10.7068 24.4413 10.1008C23.5344 9.49478 22.8275 8.63343 22.4101 7.62567C21.9926 6.61792 21.8834 5.50901 22.0962 4.43918C22.309 3.36935 22.8343 2.38665 23.6056 1.61535C24.3769 0.844041 25.3596 0.318776 26.4294 0.105974C27.4992 -0.106828 28.6082 0.00238962 29.6159 0.419816C30.6237 0.837243 31.485 1.54413 32.091 2.45109C32.697 3.35805 33.0205 4.42434 33.0205 5.51513C33.0225 6.23996 32.8813 6.95804 32.6048 7.62808C32.3284 8.29813 31.9222 8.90692 31.4097 9.41945C30.8972 9.93199 30.2884 10.3382 29.6183 10.6146C28.9483 10.891 28.2302 11.0323 27.5054 11.0303Z" fill="#E10098"></path>
</svg>
