<?xml version="1.0" encoding="UTF-8"?>
<svg xmlns="http://www.w3.org/2000/svg" width="64" height="64" viewBox="0 0 64 64" fill="none">
  <g clip-path="url(#clip0_9761_2765)">
    <path d="M32.0001 64.0002C49.6733 64.0002 64.0002 49.6732 64.0002 32.0001C64.0002 14.3269 49.6733 0 32.0001 0C14.3269 0 0 14.3269 0 32.0001C0 49.6732 14.3269 64.0002 32.0001 64.0002Z" fill="#1A171B"></path>
    <path d="M45.9896 11.8405C42.7368 11.9538 39.9009 13.744 37.7902 16.2257C35.453 18.9436 33.8965 22.1651 32.7737 25.454C30.769 23.8107 29.2221 21.6832 26.0272 20.7555C24.7587 20.365 23.4149 20.2857 22.1093 20.5243C20.8037 20.7629 19.5748 21.3125 18.5265 22.1265C17.3893 22.977 16.6038 24.2613 16.2327 25.4684C15.2689 28.608 17.2447 31.4005 18.1458 32.4029L20.1119 34.5087C20.5167 34.9184 21.4926 36.0026 21.0155 37.5447C20.4999 39.2241 18.4735 40.3156 16.3966 39.6722C15.4689 39.3903 14.1365 38.6988 14.4352 37.7254C14.5557 37.3278 14.8449 37.0266 14.9967 36.6845C15.1364 36.3881 15.2039 36.1665 15.2472 36.0339C15.6279 34.7955 15.1075 33.1835 13.7823 32.7739C12.5438 32.3932 11.2764 32.6944 10.7849 34.2919C10.2307 36.1038 11.0933 39.3903 15.7364 40.7974C21.1769 42.4696 25.7766 39.506 26.4296 35.6412C26.8392 33.2221 25.7477 31.4246 23.7478 29.1356L22.1166 27.3334C21.1528 26.3696 20.7914 24.6637 21.813 23.3722C22.6756 22.2807 23.9044 21.8157 25.9163 22.3602C28.8559 23.1553 30.1618 25.1962 32.3496 26.8418C31.4485 29.8007 30.8557 32.7691 30.3257 35.434L30.0004 37.4194C28.4391 45.6116 27.2464 50.11 24.1454 52.6906C23.5189 53.1339 22.6274 53.7989 21.2829 53.8471C20.577 53.8712 20.3505 53.3845 20.3433 53.1725C20.3264 52.6785 20.7432 52.4496 21.0179 52.2279C21.4323 52.0015 22.0588 51.6256 22.0154 50.4281C21.9672 49.0113 20.7962 47.7777 19.1 47.8379C17.8278 47.8813 15.8906 49.0788 15.9628 51.269C16.04 53.5339 18.1482 55.2277 21.3287 55.1193C23.0274 55.0615 26.8223 54.3724 30.5642 49.9221C34.9181 44.8237 36.1349 38.9831 37.0529 34.7039L38.0745 29.0561L39.9105 29.1862C45.3318 29.2995 48.0449 26.4925 48.0858 24.4492C48.1099 23.2132 47.2738 21.9964 46.1004 22.0229C45.2571 22.047 44.2042 22.606 43.9512 23.7674C43.703 24.907 45.6764 25.9359 44.1343 26.9334C43.038 27.6418 41.0743 28.1429 38.3082 27.7357L38.8142 24.9552C39.8406 19.6833 41.1032 13.197 45.9101 13.0428C46.2594 13.026 47.5413 13.0597 47.5726 13.9054C47.5822 14.1873 47.5124 14.2596 47.1799 14.9078C46.8425 15.3896 46.7148 15.8426 46.7317 16.3366C46.7799 17.6859 47.8015 18.5677 49.2809 18.5147C51.2639 18.4497 51.8349 16.5221 51.8012 15.527C51.7217 13.1994 49.2665 11.7273 46.0185 11.8357L45.9896 11.8405Z" fill="white"></path>
  </g>
  <defs>
    <clipPath id="clip0_9761_2765">
      <rect width="64" height="64" fill="white"></rect>
    </clipPath>
  </defs>
</svg>
