<?xml version="1.0" encoding="UTF-8"?>
<svg xmlns="http://www.w3.org/2000/svg" width="58" height="58" viewBox="0 0 58 58" fill="none">
  <path d="M24.4959 0.906548C23.4414 1.80833 22.6923 2.86278 22.6923 6.01185C22.6923 14.5811 33.5089 40.3223 40.8758 40.3223C41.7032 40.3335 42.5274 40.216 43.3187 39.974L43.3032 39.9783L43.1149 40.2803C36.7569 50.4144 29.1049 57.8486 24.4745 57.9977L24.3337 58C14.2757 58 0 27.6354 0 14.2757C0 12.1716 0.477131 10.5207 1.20237 9.4949C4.66157 5.26752 15.4781 1.95624 24.4959 0.906548ZM38.619 0C47.9325 0 57.2557 1.50296 57.2557 6.76094C57.2557 17.4296 50.49 30.3598 47.0355 30.3598C40.8758 30.3598 33.1987 13.2261 33.1987 4.6568C33.1987 0.749095 34.6969 0 38.6046 0H38.619Z" fill="#F49700"></path>
</svg>
