<?xml version="1.0" encoding="UTF-8"?>
<svg xmlns="http://www.w3.org/2000/svg" width="51" height="55" viewBox="0 0 51 55" fill="none">
  <path d="M37.5586 4.38281V50.6172C37.5586 53.0492 35.5992 55 33.1844 55H4.85937C2.44453 55 0.476562 53.0492 0.476562 50.6172V4.38281C0.476562 1.95938 2.44453 0 4.85937 0H33.1844C35.5992 0 37.5586 1.95938 37.5586 4.38281Z" fill="#44394A"></path>
  <path d="M34.4996 5.25879V49.7486C34.4996 50.4877 34.1301 51.1408 33.5629 51.5361C33.2105 51.7939 32.7723 51.94 32.3082 51.94H5.73633C5.15583 51.9378 4.59975 51.7062 4.18927 51.2957C3.77879 50.8852 3.54719 50.3291 3.54492 49.7486V5.25879C3.54492 4.05566 4.5332 3.06738 5.73633 3.06738H16.341C16.7191 3.06738 17.0285 3.37676 17.0285 3.75488C17.0285 4.53691 17.4496 5.29316 18.1199 5.63691C18.266 5.72285 18.4207 5.77441 18.584 5.80879C18.8722 5.87682 19.1723 5.87682 19.4605 5.80879C20.3973 5.61973 21.016 4.70879 21.016 3.75488C21.016 3.61738 21.059 3.48848 21.1363 3.37676V3.36816C21.1993 3.27566 21.2838 3.19992 21.3827 3.1475C21.4815 3.09509 21.5916 3.06758 21.7035 3.06738H32.3082C33.5113 3.06738 34.4996 4.05566 34.4996 5.25879Z" fill="white"></path>
  <path d="M20.5692 14.927V16.6113C20.5692 16.7402 20.4747 16.852 20.3458 16.8605L19.177 16.9809C19.0137 16.998 18.8762 17.1184 18.8419 17.2816C18.8247 17.3418 18.8161 17.3934 18.8075 17.4191C18.7215 17.7543 18.6012 18.0723 18.4551 18.373C18.4036 18.4848 18.3434 18.5965 18.2919 18.6996C18.2661 18.7426 18.2489 18.7855 18.2231 18.8285C18.1458 18.966 18.1629 19.1379 18.2575 19.2668L18.9879 20.1605C19.0653 20.2637 19.0567 20.4098 18.9708 20.4957L17.7762 21.6816C17.7336 21.7276 17.6747 21.7551 17.6121 21.7583C17.5495 21.7615 17.4882 21.7402 17.4411 21.6988L16.9856 21.3293L16.5731 20.9941C16.5112 20.9431 16.4351 20.9123 16.3551 20.9062C16.2751 20.9 16.1952 20.9187 16.1262 20.9598C15.7997 21.1488 15.1809 21.484 14.6911 21.5957C14.6567 21.6043 14.6051 21.6129 14.5364 21.6301C14.3731 21.673 14.2614 21.8105 14.2442 21.9652L14.1239 23.0652C14.1157 23.126 14.0861 23.1819 14.0405 23.2229C13.9948 23.2639 13.936 23.2872 13.8747 23.2887H12.1473C12.0356 23.2887 11.9497 23.2113 11.9411 23.0996L11.8208 21.9738C11.8142 21.8941 11.7823 21.8185 11.7298 21.7582C11.6772 21.6979 11.6067 21.656 11.5286 21.6387C11.5286 21.6387 11.52 21.6387 11.5114 21.6301C11.4169 21.6043 11.3223 21.5785 11.2364 21.5527C10.7832 21.4075 10.3479 21.2115 9.93873 20.9684C9.86917 20.9259 9.78833 20.9056 9.70697 20.9102C9.62561 20.9148 9.54758 20.9441 9.48326 20.9941L8.61529 21.6902C8.51217 21.7676 8.36607 21.759 8.28013 21.673L7.0856 20.4871C7.04187 20.4432 7.01591 20.3847 7.01274 20.3228C7.00957 20.261 7.0294 20.2001 7.06842 20.152L7.79029 19.2582C7.89342 19.1379 7.9106 18.9574 7.82467 18.8285L7.75592 18.6996L7.60123 18.3902C7.4981 18.184 7.41217 17.9691 7.34342 17.7457L7.24029 17.4105C7.2317 17.3762 7.2231 17.3246 7.20592 17.273C7.18894 17.194 7.14737 17.1223 7.08717 17.0682C7.02697 17.0142 6.95122 16.9806 6.87076 16.9723L5.70201 16.852C5.6401 16.8465 5.58257 16.8177 5.54108 16.7715C5.49959 16.7252 5.47724 16.6649 5.47857 16.6027V14.9184C5.47857 14.7895 5.5731 14.6863 5.70201 14.6691L6.32935 14.609L6.92232 14.5488C7.00105 14.5394 7.07511 14.5064 7.13487 14.4543C7.19464 14.4022 7.23736 14.3333 7.25748 14.2566C7.40357 13.7324 7.61842 13.2426 7.88482 12.7785C7.97076 12.641 7.95357 12.4605 7.85045 12.3402L7.05982 11.3691C7.02271 11.3202 7.00408 11.2598 7.00722 11.1984C7.01037 11.1371 7.03508 11.0789 7.07701 11.034L8.27154 9.83945C8.35748 9.75352 8.50357 9.74492 8.6067 9.82227L9.60357 10.6301C9.73248 10.7332 9.91295 10.7504 10.0504 10.6645C10.145 10.6129 10.2309 10.5613 10.3254 10.5184C10.3856 10.4926 10.4458 10.4582 10.5059 10.4324C10.8239 10.2863 11.1504 10.166 11.4942 10.0801C11.6489 10.0371 11.7606 9.89961 11.7864 9.73633L11.9239 8.45586C11.9325 8.33555 12.0442 8.23242 12.1731 8.23242H13.8575C13.9188 8.23392 13.9776 8.25724 14.0233 8.2982C14.069 8.33915 14.0985 8.39505 14.1067 8.45586L14.2442 9.74492C14.2614 9.9082 14.3731 10.0457 14.5364 10.0887C14.9199 10.1851 15.2917 10.3234 15.645 10.5012C15.7051 10.5355 15.8512 10.6129 15.9801 10.6902C16.1176 10.7676 16.2895 10.7504 16.4184 10.6559C16.7622 10.3723 17.4239 9.84805 17.4239 9.84805C17.527 9.7707 17.6731 9.7793 17.759 9.86523L18.9536 11.0598C19.0481 11.1543 19.0567 11.2918 18.9708 11.3949L18.1801 12.366C18.1281 12.4294 18.0976 12.5077 18.0929 12.5895C18.0883 12.6714 18.1098 12.7526 18.1544 12.8215C18.1801 12.8645 18.2059 12.8988 18.2145 12.9246C18.4208 13.277 18.6528 13.9473 18.7731 14.3082C18.8247 14.4543 18.9536 14.5574 19.0997 14.5746L19.7098 14.609L20.3372 14.6777C20.4747 14.6949 20.5692 14.798 20.5692 14.927Z" fill="#FC8068"></path>
  <path d="M32.5755 22.5668V24.0707C32.5755 24.1824 32.4896 24.2855 32.3778 24.2941L31.338 24.4059C31.1919 24.423 31.0716 24.5348 31.0372 24.6723C31.02 24.7238 31.0114 24.7668 31.0028 24.8012C30.9255 25.102 30.8224 25.377 30.6935 25.652C30.6505 25.7551 30.5989 25.8496 30.5474 25.9441C30.5302 25.9871 30.5044 26.0215 30.4872 26.0559C30.4185 26.1848 30.4271 26.3309 30.5216 26.4426L31.1661 27.2332C31.2349 27.3191 31.2263 27.448 31.1489 27.534L30.0833 28.591C30.006 28.677 29.8771 28.677 29.7825 28.6082L29.3786 28.2816L29.0091 27.9809C28.9544 27.9352 28.8867 27.9081 28.8156 27.9035C28.7446 27.8989 28.6739 27.9169 28.6138 27.9551C28.3216 28.127 27.7716 28.4277 27.3333 28.5223C27.3075 28.5309 27.256 28.5395 27.1958 28.5566C27.0497 28.591 26.9466 28.7113 26.938 28.8574L26.8349 29.8371C26.8177 29.9488 26.7232 30.0348 26.6114 30.0348H25.0732C24.9786 30.0348 24.9013 29.966 24.8841 29.8629L24.781 28.8574C24.7734 28.7871 24.7448 28.7207 24.6988 28.667C24.6527 28.6133 24.5915 28.5748 24.5232 28.5566C24.5232 28.5566 24.5146 28.5566 24.506 28.548C24.42 28.5309 24.3341 28.5051 24.2567 28.4793C23.8528 28.3504 23.4661 28.1785 23.1052 27.9637C23.0435 27.9254 22.9715 27.9074 22.8991 27.912C22.8267 27.9166 22.7576 27.9437 22.7013 27.9895L21.9364 28.6082C21.8505 28.677 21.7216 28.6684 21.6357 28.591L20.57 27.534C20.4841 27.448 20.4841 27.3191 20.5528 27.2332L21.1888 26.4426C21.2833 26.3309 21.2919 26.1762 21.2232 26.0559L21.163 25.9355C21.12 25.8496 21.0685 25.7551 21.0255 25.6605C20.9396 25.4715 20.8622 25.2824 20.7935 25.0848C20.7591 24.9816 20.7333 24.8871 20.7075 24.784C20.6989 24.7582 20.6903 24.7066 20.6732 24.6551C20.6583 24.5843 20.621 24.5201 20.5668 24.4721C20.5127 24.4241 20.4445 24.3949 20.3724 24.3887L19.3325 24.277C19.2773 24.2719 19.2261 24.246 19.1893 24.2045C19.1526 24.1629 19.1331 24.1089 19.1349 24.0535V22.5496C19.1349 22.4379 19.2208 22.3434 19.3325 22.3262L19.8911 22.266L20.4153 22.2145C20.5614 22.1973 20.6732 22.0941 20.7161 21.9566C20.845 21.4926 21.0341 21.0543 21.2747 20.6418C21.3521 20.5215 21.3349 20.3582 21.2489 20.2465L20.5442 19.3785C20.4755 19.2926 20.4841 19.1637 20.5614 19.0777L21.6271 18.0121C21.7044 17.9348 21.8333 17.9262 21.9278 17.9949L22.8216 18.7168C22.9333 18.8113 23.0966 18.8199 23.2169 18.7426C23.3028 18.6996 23.3802 18.6566 23.4575 18.6137L23.6122 18.5363C23.8958 18.4074 24.188 18.3043 24.4974 18.2184C24.5662 18.1982 24.6275 18.1581 24.6734 18.103C24.7194 18.0479 24.7478 17.9803 24.7552 17.909L24.8755 16.766C24.8841 16.6543 24.9786 16.5684 25.0989 16.5684H26.6028C26.7146 16.5684 26.8091 16.6543 26.8263 16.766L26.9466 17.909C26.9638 18.0551 27.0583 18.1754 27.2044 18.2098C27.5052 18.2871 27.806 18.3988 28.081 18.5277L28.1841 18.5793C28.2442 18.6051 28.3732 18.6824 28.4849 18.7426C28.6138 18.8113 28.7599 18.8027 28.8716 18.7082L29.7653 17.9863C29.8513 17.9176 29.9802 17.9262 30.0661 18.0035L31.1318 19.0691C31.2177 19.1551 31.2177 19.2754 31.1489 19.3699L30.4443 20.2379C30.3497 20.3496 30.3411 20.5129 30.4185 20.6418C30.4357 20.6762 30.4614 20.7105 30.47 20.7363C30.6505 21.0543 30.8653 21.6473 30.9685 21.9652C31.0114 22.0941 31.1232 22.1887 31.2607 22.1973L31.8021 22.2574L32.3778 22.3434C32.4896 22.3605 32.5755 22.4551 32.5755 22.5668Z" fill="#FCD131"></path>
  <path d="M13.0148 18.8969C14.7425 18.8969 16.143 17.4964 16.143 15.7688C16.143 14.0411 14.7425 12.6406 13.0148 12.6406C11.2872 12.6406 9.88672 14.0411 9.88672 15.7688C9.88672 17.4964 11.2872 18.8969 13.0148 18.8969Z" fill="white"></path>
  <path d="M25.8625 26.4428C27.5901 26.4428 28.9906 25.0423 28.9906 23.3146C28.9906 21.587 27.5901 20.1865 25.8625 20.1865C24.1349 20.1865 22.7344 21.587 22.7344 23.3146C22.7344 25.0423 24.1349 26.4428 25.8625 26.4428Z" fill="white"></path>
  <path d="M31.8262 34.4346H6.68945C6.33711 34.4346 6.04492 34.1424 6.04492 33.79C6.04492 33.4377 6.33711 33.1455 6.68945 33.1455H31.8262C32.1785 33.1455 32.4707 33.4377 32.4707 33.79C32.4707 34.1424 32.1785 34.4346 31.8262 34.4346ZM30.5543 37.8205H7.95273C7.60039 37.8205 7.3082 37.5283 7.3082 37.176C7.3082 36.8236 7.60039 36.5314 7.95273 36.5314H30.5543C30.9066 36.5314 31.1988 36.8236 31.1988 37.176C31.1988 37.5283 30.9066 37.8205 30.5543 37.8205ZM27.4691 41.2064H11.0379C10.6855 41.2064 10.3934 40.9143 10.3934 40.5619C10.3934 40.2096 10.6855 39.9174 11.0379 39.9174H27.4691C27.8215 39.9174 28.1137 40.2096 28.1137 40.5619C28.1137 40.9143 27.8215 41.2064 27.4691 41.2064Z" fill="#E5E5E5"></path>
  <path d="M25.5801 46.8615C25.5801 47.5576 25.2965 48.1936 24.8324 48.6576C24.377 49.1217 23.741 49.4053 23.0363 49.4053H15.0184C13.6176 49.4053 12.4746 48.2623 12.4746 46.8615C12.4746 46.1568 12.7582 45.5209 13.2223 45.0654C13.6777 44.6014 14.3137 44.3178 15.0184 44.3178H23.0363C24.4457 44.3178 25.5801 45.4521 25.5801 46.8615ZM50.2527 9.82246C50.2527 14.6092 45.6637 18.4936 40.0176 18.4936C38.6684 18.4936 37.3879 18.2787 36.2105 17.8748C36.0931 17.8328 35.9676 17.8187 35.8438 17.8336C35.72 17.8485 35.6013 17.8921 35.4973 17.9607C34.8785 18.3732 34.1566 18.8201 33.366 19.2154C32.6699 19.5678 31.9309 18.8287 32.2746 18.1326C32.4809 17.7029 32.6957 17.2389 32.8762 16.7576C32.9348 16.6002 32.944 16.4287 32.9026 16.2659C32.8611 16.1031 32.771 15.9568 32.6441 15.8467C30.8738 14.2826 29.7824 12.16 29.7824 9.82246C29.7824 5.02715 34.3629 1.15137 40.0176 1.15137C45.6637 1.15137 50.2527 5.02715 50.2527 9.82246Z" fill="#8C9FFA"></path>
  <path d="M42.2699 15.2448C42.1855 15.2366 42.1038 15.211 42.0298 15.1696C41.9559 15.1281 41.8913 15.0718 41.8402 15.0042C41.7332 14.8719 41.683 14.7026 41.7008 14.5334C41.7185 14.3643 41.8026 14.209 41.9347 14.1018L43.8683 12.5464L42.3129 10.6128C42.2562 10.5478 42.2133 10.472 42.1865 10.39C42.1598 10.308 42.1499 10.2215 42.1573 10.1356C42.1648 10.0497 42.1895 9.96616 42.2299 9.89C42.2704 9.81385 42.3257 9.74662 42.3927 9.69233C42.4597 9.63804 42.537 9.59781 42.6199 9.57403C42.7027 9.55025 42.7896 9.54341 42.8752 9.55392C42.9607 9.56443 43.0433 9.59208 43.118 9.63521C43.1927 9.67834 43.2579 9.73607 43.3097 9.80496L45.2691 12.237C45.3722 12.3659 45.4238 12.5378 45.4066 12.7096C45.3894 12.8815 45.3035 13.0362 45.166 13.1393L42.734 15.0987C42.6716 15.155 42.5979 15.1971 42.5179 15.2223C42.4378 15.2476 42.3532 15.2552 42.2699 15.2448ZM37.1394 10.8878C37.0551 10.8796 36.9733 10.8539 36.8993 10.8125C36.8254 10.7711 36.7608 10.7148 36.7097 10.6471L34.7504 8.21511C34.6433 8.08288 34.5932 7.91357 34.6109 7.74438C34.6286 7.57519 34.7128 7.41996 34.8449 7.31277L37.2769 5.35339C37.3419 5.29675 37.4177 5.25379 37.4997 5.22707C37.5817 5.20035 37.6682 5.19042 37.7541 5.19788C37.84 5.20533 37.9235 5.23001 37.9997 5.27046C38.0758 5.3109 38.1431 5.36627 38.1974 5.43326C38.2517 5.50026 38.2919 5.5775 38.3157 5.66039C38.3395 5.74327 38.3463 5.8301 38.3358 5.91568C38.3253 6.00127 38.2976 6.08386 38.2545 6.15852C38.2114 6.23319 38.1536 6.2984 38.0847 6.35027L36.1511 7.90574L37.7066 9.83933C37.9301 10.1143 37.8871 10.5182 37.6121 10.7417C37.4746 10.862 37.3027 10.905 37.1394 10.8878ZM38.4886 16.2761C38.4543 16.2761 38.4199 16.2675 38.3855 16.2589C38.3037 16.2369 38.2269 16.1991 38.1597 16.1475C38.0925 16.0958 38.0361 16.0315 37.9938 15.958C37.9515 15.8846 37.9241 15.8035 37.9132 15.7195C37.9022 15.6354 37.908 15.5501 37.9301 15.4682L40.8433 4.6573C40.8878 4.49206 40.996 4.35124 41.1443 4.26582C41.2926 4.18041 41.4687 4.15739 41.634 4.20183C41.7992 4.24628 41.94 4.35454 42.0254 4.50281C42.1109 4.65108 42.1339 4.82721 42.0894 4.99246L39.1761 15.8034C39.0902 16.1128 38.798 16.3104 38.4886 16.2761Z" fill="white"></path>
</svg>
