<?xml version="1.0" encoding="UTF-8"?>
<svg xmlns="http://www.w3.org/2000/svg" width="64" height="57" viewBox="0 0 64 57" fill="none">
  <g clip-path="url(#clip0_9761_2815)">
    <path d="M18.5566 0.222656C16.8396 0.226381 15.1589 1.20091 14.2947 2.68742L0.85118 26.0355C0.000127643 27.5259 0.000127643 29.4743 0.85118 30.9647L14.2947 54.313C15.1589 55.7996 16.8396 56.7743 18.5566 56.7778H45.4436C47.1606 56.7741 48.8414 55.7996 49.7056 54.313L63.1491 30.9647C64.0001 29.4743 63.9999 27.5259 63.1491 26.0355L49.7056 2.68742C48.8414 1.20066 47.1606 0.226132 45.4436 0.222656L18.5566 0.222656ZM18.8008 13.8818C18.8378 13.878 18.8765 13.878 18.9135 13.8818H23.5509C23.654 13.8851 23.7545 13.9144 23.8432 13.967C23.9318 14.0197 24.0058 14.0938 24.0581 14.1827L31.9251 28.1991C31.9649 28.2686 31.9902 28.3455 31.9996 28.425C32.0096 28.3455 32.0349 28.2686 32.0746 28.1991L39.9228 14.1827C39.9769 14.0913 40.0538 14.0155 40.1459 13.9628C40.2381 13.91 40.3424 13.8821 40.4486 13.8818H45.0863C45.4968 13.8852 45.8045 14.4024 45.612 14.7659L37.9327 28.5002L45.612 42.2157C45.8226 42.5812 45.5077 43.1222 45.0863 43.1187H40.4486C40.3405 43.1164 40.235 43.0857 40.1427 43.0295C40.0504 42.9733 39.9745 42.8938 39.9228 42.7989L32.0746 28.7823C32.0349 28.713 32.0096 28.6358 31.9999 28.5566C31.9902 28.6361 31.9648 28.7129 31.9251 28.7825L24.0578 42.7989C24.0078 42.8911 23.9349 42.9689 23.8462 43.0249C23.7575 43.0809 23.656 43.1132 23.5512 43.1187H18.9132C18.4918 43.1224 18.1769 42.5812 18.3875 42.2157L26.0669 28.5002L18.3875 14.7659C18.2035 14.4342 18.4282 13.9525 18.8008 13.8818Z" fill="#3498DB"></path>
  </g>
  <defs>
    <clipPath id="clip0_9761_2815">
      <rect width="64" height="57" fill="white"></rect>
    </clipPath>
  </defs>
</svg>
